<svg xmlns="http://www.w3.org/2000/svg" viewBox="0 0 1800 1000"><defs><linearGradient id="g" x1="0" y1="0" x2="1" y2="1"><stop stop-color="#061a33"/><stop offset="1" stop-color="#020b17"/></linearGradient><radialGradient id="r" cx="70%" cy="30%" r="60%"><stop stop-color="#c1121f" stop-opacity=".55"/><stop offset="1" stop-color="#c1121f" stop-opacity="0"/></radialGradient></defs><rect width="1800" height="1000" fill="url(#g)"/><rect width="1800" height="1000" fill="url(#r)"/><g opacity=".16" fill="#fff"><circle cx="310" cy="580" r="86"/><circle cx="540" cy="535" r="72"/><circle cx="780" cy="570" r="96"/><circle cx="1050" cy="530" r="78"/><circle cx="1295" cy="575" r="90"/><circle cx="1510" cy="520" r="72"/></g><path d="M0 760 C250 650 520 820 850 710 C1180 600 1390 710 1800 620 V1000 H0Z" fill="#c1121f" opacity=".35"/><g fill="none" stroke="#fff" opacity=".16" stroke-width="9"><path d="M230 270h260M1310 260h260M1080 770h360"/><path d="M210 290h260M1290 280h260M1060 790h360"/></g><text x="900" y="470" text-anchor="middle" font-family="Impact, Arial Black" font-size="96" fill="#fff" opacity=".18">REPLACE WITH BAND PHOTO</text></svg>
